<svg id="visual" viewBox="0 0 900 600" width="auto" height="100%" xmlns="http://www.w3.org/2000/svg" xmlns:xlink="http://www.w3.org/1999/xlink" version="1.1"><rect x="0" y="0" width="900" height="600" fill="#111"></rect><path d="M0 381L21.5 387.2C43 393.3 86 405.7 128.8 407.7C171.7 409.7 214.3 401.3 257.2 411.3C300 421.3 343 449.7 385.8 466.2C428.7 482.7 471.3 487.3 514.2 472.5C557 457.7 600 423.3 642.8 419C685.7 414.7 728.3 440.3 771.2 459C814 477.7 857 489.3 878.5 495.2L900 501L900 601L878.5 601C857 601 814 601 771.2 601C728.3 601 685.7 601 642.8 601C600 601 557 601 514.2 601C471.3 601 428.7 601 385.8 601C343 601 300 601 257.2 601C214.3 601 171.7 601 128.8 601C86 601 43 601 21.5 601L0 601Z" fill="#6c62ff"></path><path d="M0 518L21.5 522.8C43 527.7 86 537.3 128.8 524C171.7 510.7 214.3 474.3 257.2 455C300 435.7 343 433.3 385.8 448.7C428.7 464 471.3 497 514.2 506.2C557 515.3 600 500.7 642.8 484.5C685.7 468.3 728.3 450.7 771.2 444.7C814 438.7 857 444.3 878.5 447.2L900 450L900 601L878.5 601C857 601 814 601 771.2 601C728.3 601 685.7 601 642.8 601C600 601 557 601 514.2 601C471.3 601 428.7 601 385.8 601C343 601 300 601 257.2 601C214.3 601 171.7 601 128.8 601C86 601 43 601 21.5 601L0 601Z" fill="#df26bd"></path><path d="M0 597L21.5 584.7C43 572.3 86 547.7 128.8 544.2C171.7 540.7 214.3 558.3 257.2 564C300 569.7 343 563.3 385.8 558C428.7 552.7 471.3 548.3 514.2 539C557 529.7 600 515.3 642.8 510.2C685.7 505 728.3 509 771.2 505.8C814 502.7 857 492.3 878.5 487.2L900 482L900 601L878.5 601C857 601 814 601 771.2 601C728.3 601 685.7 601 642.8 601C600 601 557 601 514.2 601C471.3 601 428.7 601 385.8 601C343 601 300 601 257.2 601C214.3 601 171.7 601 128.8 601C86 601 43 601 21.5 601L0 601Z" fill="#ff006e"></path></svg>